<?xml version="1.0" encoding="UTF-8" standalone="no"?>
<!DOCTYPE svg PUBLIC "-//W3C//DTD SVG 1.1//EN"
 "http://www.w3.org/Graphics/SVG/1.1/DTD/svg11.dtd">
<!-- Generated by graphviz version 2.43.0 (0)
 -->
<!-- Title: src.common.image_base.ImageBase Pages: 1 -->
<svg width="366pt" height="148pt"
 viewBox="0.00 0.00 366.00 148.00" xmlns="http://www.w3.org/2000/svg" xmlns:xlink="http://www.w3.org/1999/xlink">
<g id="graph0" class="graph" transform="scale(1 1) rotate(0) translate(4 144)">
<title>src.common.image_base.ImageBase</title>
<!-- Node1 -->
<g id="Node000001" class="node">
<title>Node1</title>
<g id="a_Node000001"><a xlink:title="Abstract base class for image operations.">
<polygon fill="#999999" stroke="#666666" points="276,-85 79,-85 79,-66 276,-66 276,-85"/>
<text text-anchor="middle" x="177.5" y="-73" font-family="Helvetica,sans-Serif" font-size="10.00">src.common.image_base.ImageBase</text>
</a>
</g>
</g>
<!-- Node3 -->
<g id="Node000003" class="node">
<title>Node3</title>
<g id="a_Node000003"><a xlink:href="classsrc_1_1image_1_1opencv__image_1_1OpenCVImage.html" target="_top" xlink:title="OpenCV implementation of ImageBase.">
<polygon fill="white" stroke="#666666" points="167,-30 0,-30 0,0 167,0 167,-30"/>
<text text-anchor="start" x="8" y="-18" font-family="Helvetica,sans-Serif" font-size="10.00">src.image.opencv_image.Open</text>
<text text-anchor="middle" x="83.5" y="-7" font-family="Helvetica,sans-Serif" font-size="10.00">CVImage</text>
</a>
</g>
</g>
<!-- Node1&#45;&gt;Node3 -->
<g id="edge2_Node000001_Node000003" class="edge">
<title>Node1&#45;&gt;Node3</title>
<g id="a_edge2_Node000001_Node000003"><a xlink:title=" ">
<path fill="none" stroke="#63b8ff" d="M155.09,-60.55C140.31,-51.36 121.01,-39.35 106.18,-30.11"/>
<polygon fill="#63b8ff" stroke="#63b8ff" points="153.29,-63.56 163.63,-65.87 156.99,-57.61 153.29,-63.56"/>
</a>
</g>
</g>
<!-- Node4 -->
<g id="Node000004" class="node">
<title>Node4</title>
<g id="a_Node000004"><a xlink:href="classtests_1_1test__image__base_1_1ConcreteImageForTesting.html" target="_top" xlink:title="Concrete implementation of ImageBase for testing.">
<polygon fill="white" stroke="#666666" points="358,-30 185,-30 185,0 358,0 358,-30"/>
<text text-anchor="start" x="193" y="-18" font-family="Helvetica,sans-Serif" font-size="10.00">tests.test_image_base.Concrete</text>
<text text-anchor="middle" x="271.5" y="-7" font-family="Helvetica,sans-Serif" font-size="10.00">ImageForTesting</text>
</a>
</g>
</g>
<!-- Node1&#45;&gt;Node4 -->
<g id="edge3_Node000001_Node000004" class="edge">
<title>Node1&#45;&gt;Node4</title>
<g id="a_edge3_Node000001_Node000004"><a xlink:title=" ">
<path fill="none" stroke="#63b8ff" d="M199.91,-60.55C214.69,-51.36 233.99,-39.35 248.82,-30.11"/>
<polygon fill="#63b8ff" stroke="#63b8ff" points="198.01,-57.61 191.37,-65.87 201.71,-63.56 198.01,-57.61"/>
</a>
</g>
</g>
<!-- Node2 -->
<g id="Node000002" class="node">
<title>Node2</title>
<g id="a_Node000002"><a xlink:title=" ">
<polygon fill="white" stroke="#666666" points="196,-140 159,-140 159,-121 196,-121 196,-140"/>
<text text-anchor="middle" x="177.5" y="-128" font-family="Helvetica,sans-Serif" font-size="10.00">ABC</text>
</a>
</g>
</g>
<!-- Node2&#45;&gt;Node1 -->
<g id="edge1_Node000001_Node000002" class="edge">
<title>Node2&#45;&gt;Node1</title>
<g id="a_edge1_Node000001_Node000002"><a xlink:title=" ">
<path fill="none" stroke="#63b8ff" d="M177.5,-110.66C177.5,-101.93 177.5,-91.99 177.5,-85.09"/>
<polygon fill="#63b8ff" stroke="#63b8ff" points="174,-110.75 177.5,-120.75 181,-110.75 174,-110.75"/>
</a>
</g>
</g>
</g>
</svg>
