<?xml version="1.0" encoding="UTF-8" standalone="no"?>
<!DOCTYPE svg PUBLIC "-//W3C//DTD SVG 1.1//EN"
 "http://www.w3.org/Graphics/SVG/1.1/DTD/svg11.dtd">
<!-- Generated by graphviz version 2.43.0 (0)
 -->
<!-- Title: src.gui.ProcessingThread Pages: 1 -->
<svg width="443pt" height="137pt"
 viewBox="0.00 0.00 442.50 137.00" xmlns="http://www.w3.org/2000/svg" xmlns:xlink="http://www.w3.org/1999/xlink">

<svg id="main" version="1.1" xmlns="http://www.w3.org/2000/svg" xmlns:xlink="http://www.w3.org/1999/xlink" xml:space="preserve" onload="init(evt)">
<style type="text/css"><![CDATA[
.node, .edge {opacity: 0.7;}
.node.selected, .edge.selected {opacity: 1;}
.edge:hover path { stroke: red; }
.edge:hover polygon { stroke: red; fill: red; }
]]></style>
<script type="application/ecmascript" xlink:href="svg.min.js"/>
<svg id="graph" class="graph">
<g id="graph0" class="graph" transform="scale(1 1) rotate(0) translate(4 133)">
<title>src.gui.ProcessingThread</title>
<!-- Node1 -->
<g id="Node000001" class="node">
<title>Node1</title>
<g id="a_Node000001"><a xlink:title="Worker thread for image processing operations.">
<polygon fill="#999999" stroke="#666666" points="284,-74 146,-74 146,-55 284,-55 284,-74"/>
<text text-anchor="middle" x="215" y="-62" font-family="Helvetica,sans-Serif" font-size="10.00">src.gui.ProcessingThread</text>
</a>
</g>
</g>
<!-- Node3 -->
<g id="Node000003" class="node">
<title>Node3</title>
<g id="a_Node000003"><a xlink:href="classsrc_1_1gui_1_1ComparisonThread.html" target="_top" xlink:title="Thread for performance comparison.">
<polygon fill="white" stroke="#666666" points="144,-19 0,-19 0,0 144,0 144,-19"/>
<text text-anchor="middle" x="72" y="-7" font-family="Helvetica,sans-Serif" font-size="10.00">src.gui.ComparisonThread</text>
</a>
</g>
</g>
<!-- Node1&#45;&gt;Node3 -->
<g id="edge2_Node000001_Node000003" class="edge">
<title>Node1&#45;&gt;Node3</title>
<g id="a_edge2_Node000001_Node000003"><a xlink:title=" ">
<path fill="none" stroke="#63b8ff" d="M182.41,-51.42C155.88,-41.59 119.07,-27.95 95.39,-19.17"/>
<polygon fill="#63b8ff" stroke="#63b8ff" points="181.43,-54.79 192.02,-54.98 183.86,-48.23 181.43,-54.79"/>
</a>
</g>
</g>
<!-- Node4 -->
<g id="Node000004" class="node">
<title>Node4</title>
<g id="a_Node000004"><a xlink:href="classsrc_1_1gui_1_1HueThread.html" target="_top" xlink:title="Thread for hue adjustment processing.">
<polygon fill="white" stroke="#666666" points="267.5,-19 162.5,-19 162.5,0 267.5,0 267.5,-19"/>
<text text-anchor="middle" x="215" y="-7" font-family="Helvetica,sans-Serif" font-size="10.00">src.gui.HueThread</text>
</a>
</g>
</g>
<!-- Node1&#45;&gt;Node4 -->
<g id="edge3_Node000001_Node000004" class="edge">
<title>Node1&#45;&gt;Node4</title>
<g id="a_edge3_Node000001_Node000004"><a xlink:title=" ">
<path fill="none" stroke="#63b8ff" d="M215,-44.66C215,-35.93 215,-25.99 215,-19.09"/>
<polygon fill="#63b8ff" stroke="#63b8ff" points="211.5,-44.75 215,-54.75 218.5,-44.75 211.5,-44.75"/>
</a>
</g>
</g>
<!-- Node5 -->
<g id="Node000005" class="node">
<title>Node5</title>
<g id="a_Node000005"><a xlink:href="classsrc_1_1gui_1_1MonochromeThread.html" target="_top" xlink:title="Thread for monochrome conversion processing.">
<polygon fill="white" stroke="#666666" points="434.5,-19 285.5,-19 285.5,0 434.5,0 434.5,-19"/>
<text text-anchor="middle" x="360" y="-7" font-family="Helvetica,sans-Serif" font-size="10.00">src.gui.MonochromeThread</text>
</a>
</g>
</g>
<!-- Node1&#45;&gt;Node5 -->
<g id="edge4_Node000001_Node000005" class="edge">
<title>Node1&#45;&gt;Node5</title>
<g id="a_edge4_Node000001_Node000005"><a xlink:title=" ">
<path fill="none" stroke="#63b8ff" d="M247.69,-51.55C274.62,-41.71 312.16,-27.98 336.28,-19.17"/>
<polygon fill="#63b8ff" stroke="#63b8ff" points="246.49,-48.26 238.3,-54.98 248.89,-54.84 246.49,-48.26"/>
</a>
</g>
</g>
<!-- Node2 -->
<g id="Node000002" class="node">
<title>Node2</title>
<g id="a_Node000002"><a xlink:title=" ">
<polygon fill="white" stroke="#666666" points="244,-129 186,-129 186,-110 244,-110 244,-129"/>
<text text-anchor="middle" x="215" y="-117" font-family="Helvetica,sans-Serif" font-size="10.00">QThread</text>
</a>
</g>
</g>
<!-- Node2&#45;&gt;Node1 -->
<g id="edge1_Node000001_Node000002" class="edge">
<title>Node2&#45;&gt;Node1</title>
<g id="a_edge1_Node000001_Node000002"><a xlink:title=" ">
<path fill="none" stroke="#63b8ff" d="M215,-99.66C215,-90.93 215,-80.99 215,-74.09"/>
<polygon fill="#63b8ff" stroke="#63b8ff" points="211.5,-99.75 215,-109.75 218.5,-99.75 211.5,-99.75"/>
</a>
</g>
</g>
</g>
</svg>
</svg>

<style type='text/css'>
<![CDATA[
[data-mouse-over-selected='false'] { opacity: 0.7; }
[data-mouse-over-selected='true']  { opacity: 1.0; }
]]>
</style>
<script type="application/ecmascript"><![CDATA[
document.addEventListener('DOMContentLoaded', (event) => {
  highlightEdges();
  highlightAdjacentNodes();
});
]]></script>
</svg>
