<?xml version="1.0" encoding="UTF-8" standalone="no"?>
<!DOCTYPE svg PUBLIC "-//W3C//DTD SVG 1.1//EN"
 "http://www.w3.org/Graphics/SVG/1.1/DTD/svg11.dtd">
<!-- Generated by graphviz version 2.43.0 (0)
 -->
<!-- Title: tests.test_gui_thread_safety.TestThreadRaceConditions Pages: 1 -->
<svg width="191pt" height="159pt"
 viewBox="0.00 0.00 191.00 159.00" xmlns="http://www.w3.org/2000/svg" xmlns:xlink="http://www.w3.org/1999/xlink">
<g id="graph0" class="graph" transform="scale(1 1) rotate(0) translate(4 155)">
<title>tests.test_gui_thread_safety.TestThreadRaceConditions</title>
<!-- Node1 -->
<g id="Node000001" class="node">
<title>Node1</title>
<g id="a_Node000001"><a xlink:title=" ">
<polygon fill="#999999" stroke="#666666" points="183,-30 0,-30 0,0 183,0 183,-30"/>
<text text-anchor="start" x="8" y="-18" font-family="Helvetica,sans-Serif" font-size="10.00">tests.test_gui_thread</text>
<text text-anchor="middle" x="91.5" y="-7" font-family="Helvetica,sans-Serif" font-size="10.00">_safety.TestThreadRaceConditions</text>
</a>
</g>
</g>
<!-- Node2 -->
<g id="Node000002" class="node">
<title>Node2</title>
<g id="a_Node000002"><a xlink:href="classtests_1_1test__gui__thread__safety_1_1GUIThreadSafetyTestBase.html" target="_top" xlink:title="Base class for GUI thread safety tests.">
<polygon fill="white" stroke="#666666" points="182,-96 1,-96 1,-66 182,-66 182,-96"/>
<text text-anchor="start" x="9" y="-84" font-family="Helvetica,sans-Serif" font-size="10.00">tests.test_gui_thread</text>
<text text-anchor="middle" x="91.5" y="-73" font-family="Helvetica,sans-Serif" font-size="10.00">_safety.GUIThreadSafetyTestBase</text>
</a>
</g>
</g>
<!-- Node2&#45;&gt;Node1 -->
<g id="edge1_Node000001_Node000002" class="edge">
<title>Node2&#45;&gt;Node1</title>
<g id="a_edge1_Node000001_Node000002"><a xlink:title=" ">
<path fill="none" stroke="#63b8ff" d="M91.5,-55.54C91.5,-46.96 91.5,-37.61 91.5,-30.16"/>
<polygon fill="#63b8ff" stroke="#63b8ff" points="88,-55.8 91.5,-65.8 95,-55.8 88,-55.8"/>
</a>
</g>
</g>
<!-- Node3 -->
<g id="Node000003" class="node">
<title>Node3</title>
<g id="a_Node000003"><a xlink:title=" ">
<polygon fill="white" stroke="#666666" points="143.5,-151 39.5,-151 39.5,-132 143.5,-132 143.5,-151"/>
<text text-anchor="middle" x="91.5" y="-139" font-family="Helvetica,sans-Serif" font-size="10.00">unittest::TestCase</text>
</a>
</g>
</g>
<!-- Node3&#45;&gt;Node2 -->
<g id="edge2_Node000002_Node000003" class="edge">
<title>Node3&#45;&gt;Node2</title>
<g id="a_edge2_Node000002_Node000003"><a xlink:title=" ">
<path fill="none" stroke="#63b8ff" d="M91.5,-121.65C91.5,-113.36 91.5,-103.78 91.5,-96.11"/>
<polygon fill="#63b8ff" stroke="#63b8ff" points="88,-121.87 91.5,-131.87 95,-121.87 88,-121.87"/>
</a>
</g>
</g>
</g>
</svg>
