<?xml version="1.0" encoding="UTF-8" standalone="no"?>
<!DOCTYPE svg PUBLIC "-//W3C//DTD SVG 1.1//EN"
 "http://www.w3.org/Graphics/SVG/1.1/DTD/svg11.dtd">
<!-- Generated by graphviz version 2.43.0 (0)
 -->
<!-- Title: src.modules.sequential.ProcessorBase Pages: 1 -->
<svg width="518pt" height="86pt"
 viewBox="0.00 0.00 518.00 86.00" xmlns="http://www.w3.org/2000/svg" xmlns:xlink="http://www.w3.org/1999/xlink">
<g id="graph0" class="graph" transform="scale(1 1) rotate(0) translate(4 82)">
<title>src.modules.sequential.ProcessorBase</title>
<!-- Node1 -->
<g id="Node000001" class="node">
<title>Node1</title>
<g id="a_Node000001"><a xlink:title="Abstract base class for image processors.">
<polygon fill="#999999" stroke="#666666" points="277,-48.5 73,-48.5 73,-29.5 277,-29.5 277,-48.5"/>
<text text-anchor="middle" x="175" y="-36.5" font-family="Helvetica,sans-Serif" font-size="10.00">src.modules.sequential.ProcessorBase</text>
</a>
</g>
</g>
<!-- Node3 -->
<g id="Node000003" class="node">
<title>Node3</title>
<g id="a_Node000003"><a xlink:href="classsrc_1_1modules_1_1sequential_1_1HueAdjusterSeq.html" target="_top" xlink:title="Sequential hue adjuster.">
<polygon fill="white" stroke="#666666" points="487.5,-78 335.5,-78 335.5,-48 487.5,-48 487.5,-78"/>
<text text-anchor="start" x="343.5" y="-66" font-family="Helvetica,sans-Serif" font-size="10.00">src.modules.sequential.Hue</text>
<text text-anchor="middle" x="411.5" y="-55" font-family="Helvetica,sans-Serif" font-size="10.00">AdjusterSeq</text>
</a>
</g>
</g>
<!-- Node1&#45;&gt;Node3 -->
<g id="edge2_Node000001_Node000003" class="edge">
<title>Node1&#45;&gt;Node3</title>
<g id="a_edge2_Node000001_Node000003"><a xlink:title=" ">
<path fill="none" stroke="#63b8ff" d="M279.14,-49.56C298.03,-51.49 317.41,-53.47 335.29,-55.3"/>
<polygon fill="#63b8ff" stroke="#63b8ff" points="279.32,-46.06 269.02,-48.52 278.61,-53.02 279.32,-46.06"/>
</a>
</g>
</g>
<!-- Node4 -->
<g id="Node000004" class="node">
<title>Node4</title>
<g id="a_Node000004"><a xlink:href="classsrc_1_1modules_1_1sequential_1_1MonochromeConverterSeq.html" target="_top" xlink:title="Sequential monochrome converter.">
<polygon fill="white" stroke="#666666" points="510,-30 313,-30 313,0 510,0 510,-30"/>
<text text-anchor="start" x="321" y="-18" font-family="Helvetica,sans-Serif" font-size="10.00">src.modules.sequential.Monochrome</text>
<text text-anchor="middle" x="411.5" y="-7" font-family="Helvetica,sans-Serif" font-size="10.00">ConverterSeq</text>
</a>
</g>
</g>
<!-- Node1&#45;&gt;Node4 -->
<g id="edge3_Node000001_Node000004" class="edge">
<title>Node1&#45;&gt;Node4</title>
<g id="a_edge3_Node000001_Node000004"><a xlink:title=" ">
<path fill="none" stroke="#63b8ff" d="M279.25,-28.43C290.46,-27.29 301.84,-26.12 312.98,-24.98"/>
<polygon fill="#63b8ff" stroke="#63b8ff" points="278.61,-24.98 269.02,-29.48 279.32,-31.94 278.61,-24.98"/>
</a>
</g>
</g>
<!-- Node2 -->
<g id="Node000002" class="node">
<title>Node2</title>
<g id="a_Node000002"><a xlink:title=" ">
<polygon fill="white" stroke="#666666" points="37,-48.5 0,-48.5 0,-29.5 37,-29.5 37,-48.5"/>
<text text-anchor="middle" x="18.5" y="-36.5" font-family="Helvetica,sans-Serif" font-size="10.00">ABC</text>
</a>
</g>
</g>
<!-- Node2&#45;&gt;Node1 -->
<g id="edge1_Node000001_Node000002" class="edge">
<title>Node2&#45;&gt;Node1</title>
<g id="a_edge1_Node000001_Node000002"><a xlink:title=" ">
<path fill="none" stroke="#63b8ff" d="M47.24,-39C54.9,-39 63.68,-39 72.97,-39"/>
<polygon fill="#63b8ff" stroke="#63b8ff" points="47.22,-35.5 37.22,-39 47.22,-42.5 47.22,-35.5"/>
</a>
</g>
</g>
</g>
</svg>
