<?xml version="1.0" encoding="UTF-8" standalone="no"?>
<!DOCTYPE svg PUBLIC "-//W3C//DTD SVG 1.1//EN"
 "http://www.w3.org/Graphics/SVG/1.1/DTD/svg11.dtd">
<!-- Generated by graphviz version 2.43.0 (0)
 -->
<!-- Title: Graphical Class Hierarchy Pages: 1 -->
<svg width="261pt" height="86pt"
 viewBox="0.00 0.00 261.00 86.00" xmlns="http://www.w3.org/2000/svg" xmlns:xlink="http://www.w3.org/1999/xlink">
<g id="graph0" class="graph" transform="scale(1 1) rotate(0) translate(4 82)">
<title>Graphical Class Hierarchy</title>
<!-- Node0 -->
<g id="Node000000" class="node">
<title>Node0</title>
<g id="a_Node000000"><a xlink:title=" ">
<polygon fill="#e0e0e0" stroke="#999999" points="44,-48.5 0,-48.5 0,-29.5 44,-29.5 44,-48.5"/>
<text text-anchor="middle" x="22" y="-36.5" font-family="Helvetica,sans-Serif" font-size="10.00">Enum</text>
</a>
</g>
</g>
<!-- Node1 -->
<g id="Node000001" class="node">
<title>Node1</title>
<g id="a_Node000001"><a xlink:href="classsrc_1_1common_1_1image__base_1_1ImageFormat.html" target="_top" xlink:title="Enumeration of supported image color formats.">
<polygon fill="white" stroke="#666666" points="253,-78 80,-78 80,-48 253,-48 253,-78"/>
<text text-anchor="start" x="88" y="-66" font-family="Helvetica,sans-Serif" font-size="10.00">src.common.image_base.Image</text>
<text text-anchor="middle" x="166.5" y="-55" font-family="Helvetica,sans-Serif" font-size="10.00">Format</text>
</a>
</g>
</g>
<!-- Node0&#45;&gt;Node1 -->
<g id="edge7_Node000000_Node000001" class="edge">
<title>Node0&#45;&gt;Node1</title>
<g id="a_edge7_Node000000_Node000001"><a xlink:title=" ">
<path fill="none" stroke="#63b8ff" d="M54.03,-44.23C61.85,-45.54 70.62,-47.02 79.73,-48.55"/>
<polygon fill="#63b8ff" stroke="#63b8ff" points="54.47,-40.75 44.03,-42.54 53.31,-47.65 54.47,-40.75"/>
</a>
</g>
</g>
<!-- Node2 -->
<g id="Node000002" class="node">
<title>Node2</title>
<g id="a_Node000002"><a xlink:href="classsrc_1_1modules_1_1processor__factory_1_1ProcessingMode.html" target="_top" xlink:title="Enumeration of processing modes.">
<polygon fill="white" stroke="#666666" points="235,-30 98,-30 98,0 235,0 235,-30"/>
<text text-anchor="start" x="106" y="-18" font-family="Helvetica,sans-Serif" font-size="10.00">src.modules.processor</text>
<text text-anchor="middle" x="166.5" y="-7" font-family="Helvetica,sans-Serif" font-size="10.00">_factory.ProcessingMode</text>
</a>
</g>
</g>
<!-- Node0&#45;&gt;Node2 -->
<g id="edge8_Node000000_Node000002" class="edge">
<title>Node0&#45;&gt;Node2</title>
<g id="a_edge8_Node000000_Node000002"><a xlink:title=" ">
<path fill="none" stroke="#63b8ff" d="M54.21,-33.74C67.14,-31.57 82.68,-28.95 97.99,-26.37"/>
<polygon fill="#63b8ff" stroke="#63b8ff" points="53.31,-30.35 44.03,-35.46 54.47,-37.25 53.31,-30.35"/>
</a>
</g>
</g>
</g>
</svg>
