<?xml version="1.0" encoding="UTF-8" standalone="no"?>
<!DOCTYPE svg PUBLIC "-//W3C//DTD SVG 1.1//EN"
 "http://www.w3.org/Graphics/SVG/1.1/DTD/svg11.dtd">
<!-- Generated by graphviz version 2.43.0 (0)
 -->
<!-- Title: Graphical Class Hierarchy Pages: 1 -->
<svg width="235pt" height="64pt"
 viewBox="0.00 0.00 235.00 64.00" xmlns="http://www.w3.org/2000/svg" xmlns:xlink="http://www.w3.org/1999/xlink">
<g id="graph0" class="graph" transform="scale(1 1) rotate(0) translate(4 60)">
<title>Graphical Class Hierarchy</title>
<!-- Node0 -->
<g id="Node000000" class="node">
<title>Node0</title>
<g id="a_Node000000"><a xlink:title=" ">
<polygon fill="#e0e0e0" stroke="#999999" points="59,-37 0,-37 0,-18 59,-18 59,-37"/>
<text text-anchor="middle" x="29.5" y="-25" font-family="Helvetica,sans-Serif" font-size="10.00">QWidget</text>
</a>
</g>
</g>
<!-- Node1 -->
<g id="Node000001" class="node">
<title>Node1</title>
<g id="a_Node000001"><a xlink:href="classsrc_1_1gui_1_1HueTab.html" target="_top" xlink:title="Tab for hue adjustment.">
<polygon fill="white" stroke="#666666" points="205,-56 117,-56 117,-37 205,-37 205,-56"/>
<text text-anchor="middle" x="161" y="-44" font-family="Helvetica,sans-Serif" font-size="10.00">src.gui.HueTab</text>
</a>
</g>
</g>
<!-- Node0&#45;&gt;Node1 -->
<g id="edge15_Node000000_Node000001" class="edge">
<title>Node0&#45;&gt;Node1</title>
<g id="a_edge15_Node000000_Node000001"><a xlink:title=" ">
<path fill="none" stroke="#63b8ff" d="M69.21,-33.18C84.2,-35.38 101.43,-37.91 116.82,-40.16"/>
<polygon fill="#63b8ff" stroke="#63b8ff" points="69.64,-29.71 59.24,-31.72 68.63,-36.63 69.64,-29.71"/>
</a>
</g>
</g>
<!-- Node2 -->
<g id="Node000002" class="node">
<title>Node2</title>
<g id="a_Node000002"><a xlink:href="classsrc_1_1gui_1_1MonochromeTab.html" target="_top" xlink:title="Tab for monochrome conversion.">
<polygon fill="white" stroke="#666666" points="227,-19 95,-19 95,0 227,0 227,-19"/>
<text text-anchor="middle" x="161" y="-7" font-family="Helvetica,sans-Serif" font-size="10.00">src.gui.MonochromeTab</text>
</a>
</g>
</g>
<!-- Node0&#45;&gt;Node2 -->
<g id="edge16_Node000000_Node000002" class="edge">
<title>Node0&#45;&gt;Node2</title>
<g id="a_edge16_Node000000_Node000002"><a xlink:title=" ">
<path fill="none" stroke="#63b8ff" d="M69.38,-22.1C77.42,-20.98 86.09,-19.77 94.77,-18.57"/>
<polygon fill="#63b8ff" stroke="#63b8ff" points="68.66,-18.66 59.24,-23.51 69.63,-25.6 68.66,-18.66"/>
</a>
</g>
</g>
</g>
</svg>
