<?xml version="1.0" encoding="UTF-8" standalone="no"?>
<!DOCTYPE svg PUBLIC "-//W3C//DTD SVG 1.1//EN"
 "http://www.w3.org/Graphics/SVG/1.1/DTD/svg11.dtd">
<!-- Generated by graphviz version 2.43.0 (0)
 -->
<!-- Title: Graphical Class Hierarchy Pages: 1 -->
<svg width="425pt" height="101pt"
 viewBox="0.00 0.00 425.00 101.00" xmlns="http://www.w3.org/2000/svg" xmlns:xlink="http://www.w3.org/1999/xlink">
<g id="graph0" class="graph" transform="scale(1 1) rotate(0) translate(4 97)">
<title>Graphical Class Hierarchy</title>
<!-- Node0 -->
<g id="Node000000" class="node">
<title>Node0</title>
<g id="a_Node000000"><a xlink:title=" ">
<polygon fill="#e0e0e0" stroke="#999999" points="58,-56 0,-56 0,-37 58,-37 58,-56"/>
<text text-anchor="middle" x="29" y="-44" font-family="Helvetica,sans-Serif" font-size="10.00">QThread</text>
</a>
</g>
</g>
<!-- Node1 -->
<g id="Node000001" class="node">
<title>Node1</title>
<g id="a_Node000001"><a xlink:href="classsrc_1_1gui_1_1ProcessingThread.html" target="_top" xlink:title="Worker thread for image processing operations.">
<polygon fill="white" stroke="#666666" points="232,-56 94,-56 94,-37 232,-37 232,-56"/>
<text text-anchor="middle" x="163" y="-44" font-family="Helvetica,sans-Serif" font-size="10.00">src.gui.ProcessingThread</text>
</a>
</g>
</g>
<!-- Node0&#45;&gt;Node1 -->
<g id="edge11_Node000000_Node000001" class="edge">
<title>Node0&#45;&gt;Node1</title>
<g id="a_edge11_Node000000_Node000001"><a xlink:title=" ">
<path fill="none" stroke="#63b8ff" d="M68.43,-46.5C76.45,-46.5 85.13,-46.5 93.86,-46.5"/>
<polygon fill="#63b8ff" stroke="#63b8ff" points="68.32,-43 58.32,-46.5 68.32,-50 68.32,-43"/>
</a>
</g>
</g>
<!-- Node2 -->
<g id="Node000002" class="node">
<title>Node2</title>
<g id="a_Node000002"><a xlink:href="classsrc_1_1gui_1_1ComparisonThread.html" target="_top" xlink:title="Thread for performance comparison.">
<polygon fill="white" stroke="#666666" points="414.5,-93 270.5,-93 270.5,-74 414.5,-74 414.5,-93"/>
<text text-anchor="middle" x="342.5" y="-81" font-family="Helvetica,sans-Serif" font-size="10.00">src.gui.ComparisonThread</text>
</a>
</g>
</g>
<!-- Node1&#45;&gt;Node2 -->
<g id="edge12_Node000001_Node000002" class="edge">
<title>Node1&#45;&gt;Node2</title>
<g id="a_edge12_Node000001_Node000002"><a xlink:title=" ">
<path fill="none" stroke="#63b8ff" d="M219.57,-58.08C244.03,-63.18 272.41,-69.1 295.64,-73.94"/>
<polygon fill="#63b8ff" stroke="#63b8ff" points="220.21,-54.64 209.71,-56.03 218.79,-61.5 220.21,-54.64"/>
</a>
</g>
</g>
<!-- Node3 -->
<g id="Node000003" class="node">
<title>Node3</title>
<g id="a_Node000003"><a xlink:href="classsrc_1_1gui_1_1HueThread.html" target="_top" xlink:title="Thread for hue adjustment processing.">
<polygon fill="white" stroke="#666666" points="395,-56 290,-56 290,-37 395,-37 395,-56"/>
<text text-anchor="middle" x="342.5" y="-44" font-family="Helvetica,sans-Serif" font-size="10.00">src.gui.HueThread</text>
</a>
</g>
</g>
<!-- Node1&#45;&gt;Node3 -->
<g id="edge13_Node000001_Node000003" class="edge">
<title>Node1&#45;&gt;Node3</title>
<g id="a_edge13_Node000001_Node000003"><a xlink:title=" ">
<path fill="none" stroke="#63b8ff" d="M242.56,-46.5C258.57,-46.5 275.04,-46.5 289.83,-46.5"/>
<polygon fill="#63b8ff" stroke="#63b8ff" points="242.12,-43 232.12,-46.5 242.12,-50 242.12,-43"/>
</a>
</g>
</g>
<!-- Node4 -->
<g id="Node000004" class="node">
<title>Node4</title>
<g id="a_Node000004"><a xlink:href="classsrc_1_1gui_1_1MonochromeThread.html" target="_top" xlink:title="Thread for monochrome conversion processing.">
<polygon fill="white" stroke="#666666" points="417,-19 268,-19 268,0 417,0 417,-19"/>
<text text-anchor="middle" x="342.5" y="-7" font-family="Helvetica,sans-Serif" font-size="10.00">src.gui.MonochromeThread</text>
</a>
</g>
</g>
<!-- Node1&#45;&gt;Node4 -->
<g id="edge14_Node000001_Node000004" class="edge">
<title>Node1&#45;&gt;Node4</title>
<g id="a_edge14_Node000001_Node000004"><a xlink:title=" ">
<path fill="none" stroke="#63b8ff" d="M219.57,-34.92C244.03,-29.82 272.41,-23.9 295.64,-19.06"/>
<polygon fill="#63b8ff" stroke="#63b8ff" points="218.79,-31.5 209.71,-36.97 220.21,-38.36 218.79,-31.5"/>
</a>
</g>
</g>
</g>
</svg>
