<?xml version="1.0" encoding="UTF-8" standalone="no"?>
<!DOCTYPE svg PUBLIC "-//W3C//DTD SVG 1.1//EN"
 "http://www.w3.org/Graphics/SVG/1.1/DTD/svg11.dtd">
<!-- Generated by graphviz version 2.43.0 (0)
 -->
<!-- Title: Graphical Class Hierarchy Pages: 1 -->
<svg width="597pt" height="1574pt"
 viewBox="0.00 0.00 597.00 1574.00" xmlns="http://www.w3.org/2000/svg" xmlns:xlink="http://www.w3.org/1999/xlink">
<g id="graph0" class="graph" transform="scale(1 1) rotate(0) translate(4 1570)">
<title>Graphical Class Hierarchy</title>
<!-- Node0 -->
<g id="Node000000" class="node">
<title>Node0</title>
<g id="a_Node000000"><a xlink:title=" ">
<polygon fill="#e0e0e0" stroke="#999999" points="101,-720.5 0,-720.5 0,-701.5 101,-701.5 101,-720.5"/>
<text text-anchor="middle" x="50.5" y="-708.5" font-family="Helvetica,sans-Serif" font-size="10.00">unittest.TestCase</text>
</a>
</g>
</g>
<!-- Node1 -->
<g id="Node000001" class="node">
<title>Node1</title>
<g id="a_Node000001"><a xlink:href="classtests_1_1test__gui__thread__safety_1_1GUIThreadSafetyTestBase.html" target="_top" xlink:title="Base class for GUI thread safety tests.">
<polygon fill="white" stroke="#666666" points="332,-1422 151,-1422 151,-1392 332,-1392 332,-1422"/>
<text text-anchor="start" x="159" y="-1410" font-family="Helvetica,sans-Serif" font-size="10.00">tests.test_gui_thread</text>
<text text-anchor="middle" x="241.5" y="-1399" font-family="Helvetica,sans-Serif" font-size="10.00">_safety.GUIThreadSafetyTestBase</text>
</a>
</g>
</g>
<!-- Node0&#45;&gt;Node1 -->
<g id="edge17_Node000000_Node000001" class="edge">
<title>Node0&#45;&gt;Node1</title>
<g id="a_edge17_Node000000_Node000001"><a xlink:title=" ">
<path fill="none" stroke="#63b8ff" d="M51.1,-730.78C49.5,-831.22 47.42,-1283.85 137,-1383 140.96,-1387.38 145.54,-1391.04 150.54,-1394.09"/>
<polygon fill="#63b8ff" stroke="#63b8ff" points="54.6,-730.84 51.28,-720.78 47.6,-730.71 54.6,-730.84"/>
</a>
</g>
</g>
<!-- Node9 -->
<g id="Node000009" class="node">
<title>Node9</title>
<g id="a_Node000009"><a xlink:href="classtests_1_1test__image__base_1_1TestImageBase.html" target="_top" xlink:title="Test cases for ImageBase class.">
<polygon fill="white" stroke="#666666" points="316,-1374 167,-1374 167,-1344 316,-1344 316,-1374"/>
<text text-anchor="start" x="175" y="-1362" font-family="Helvetica,sans-Serif" font-size="10.00">tests.test_image_base.Test</text>
<text text-anchor="middle" x="241.5" y="-1351" font-family="Helvetica,sans-Serif" font-size="10.00">ImageBase</text>
</a>
</g>
</g>
<!-- Node0&#45;&gt;Node9 -->
<g id="edge25_Node000000_Node000009" class="edge">
<title>Node0&#45;&gt;Node9</title>
<g id="a_edge25_Node000000_Node000009"><a xlink:title=" ">
<path fill="none" stroke="#63b8ff" d="M51.32,-730.56C50.84,-826.18 53.61,-1243.6 137,-1335 145.02,-1343.79 155.57,-1349.67 166.86,-1353.56"/>
<polygon fill="#63b8ff" stroke="#63b8ff" points="54.82,-730.56 51.39,-720.53 47.82,-730.51 54.82,-730.56"/>
</a>
</g>
</g>
<!-- Node10 -->
<g id="Node000010" class="node">
<title>Node10</title>
<g id="a_Node000010"><a xlink:href="classtests_1_1test__image__base_1_1TestImageBaseEdgeCases.html" target="_top" xlink:title=" ">
<polygon fill="white" stroke="#666666" points="316,-1326 167,-1326 167,-1296 316,-1296 316,-1326"/>
<text text-anchor="start" x="175" y="-1314" font-family="Helvetica,sans-Serif" font-size="10.00">tests.test_image_base.Test</text>
<text text-anchor="middle" x="241.5" y="-1303" font-family="Helvetica,sans-Serif" font-size="10.00">ImageBaseEdgeCases</text>
</a>
</g>
</g>
<!-- Node0&#45;&gt;Node10 -->
<g id="edge26_Node000000_Node000010" class="edge">
<title>Node0&#45;&gt;Node10</title>
<g id="a_edge26_Node000000_Node000010"><a xlink:title=" ">
<path fill="none" stroke="#63b8ff" d="M51.57,-730.76C52.28,-822.21 59.92,-1203.45 137,-1287 145.07,-1295.74 155.64,-1301.61 166.94,-1305.48"/>
<polygon fill="#63b8ff" stroke="#63b8ff" points="55.07,-730.64 51.51,-720.66 48.07,-730.68 55.07,-730.64"/>
</a>
</g>
</g>
<!-- Node11 -->
<g id="Node000011" class="node">
<title>Node11</title>
<g id="a_Node000011"><a xlink:href="classtests_1_1test__image__base_1_1TestImageFormat.html" target="_top" xlink:title="Test cases for ImageFormat enumeration.">
<polygon fill="white" stroke="#666666" points="316,-1278 167,-1278 167,-1248 316,-1248 316,-1278"/>
<text text-anchor="start" x="175" y="-1266" font-family="Helvetica,sans-Serif" font-size="10.00">tests.test_image_base.Test</text>
<text text-anchor="middle" x="241.5" y="-1255" font-family="Helvetica,sans-Serif" font-size="10.00">ImageFormat</text>
</a>
</g>
</g>
<!-- Node0&#45;&gt;Node11 -->
<g id="edge27_Node000000_Node000011" class="edge">
<title>Node0&#45;&gt;Node11</title>
<g id="a_edge27_Node000000_Node000011"><a xlink:title=" ">
<path fill="none" stroke="#63b8ff" d="M51.86,-730.74C53.84,-817.41 66.14,-1163.21 137,-1239 145.06,-1247.62 155.56,-1253.44 166.78,-1257.3"/>
<polygon fill="#63b8ff" stroke="#63b8ff" points="55.36,-730.61 51.65,-720.68 48.36,-730.75 55.36,-730.61"/>
</a>
</g>
</g>
<!-- Node12 -->
<g id="Node000012" class="node">
<title>Node12</title>
<g id="a_Node000012"><a xlink:href="classtests_1_1test__image__utils_1_1TestAdjustHue.html" target="_top" xlink:title=" ">
<polygon fill="white" stroke="#666666" points="315,-1230 168,-1230 168,-1200 315,-1200 315,-1230"/>
<text text-anchor="start" x="176" y="-1218" font-family="Helvetica,sans-Serif" font-size="10.00">tests.test_image_utils.Test</text>
<text text-anchor="middle" x="241.5" y="-1207" font-family="Helvetica,sans-Serif" font-size="10.00">AdjustHue</text>
</a>
</g>
</g>
<!-- Node0&#45;&gt;Node12 -->
<g id="edge28_Node000000_Node000012" class="edge">
<title>Node0&#45;&gt;Node12</title>
<g id="a_edge28_Node000000_Node000012"><a xlink:title=" ">
<path fill="none" stroke="#63b8ff" d="M52.22,-730.99C55.58,-813.05 72.41,-1122.99 137,-1191 145.38,-1199.83 156.32,-1205.7 167.94,-1209.55"/>
<polygon fill="#63b8ff" stroke="#63b8ff" points="55.7,-730.45 51.82,-720.59 48.7,-730.72 55.7,-730.45"/>
</a>
</g>
</g>
<!-- Node13 -->
<g id="Node000013" class="node">
<title>Node13</title>
<g id="a_Node000013"><a xlink:href="classtests_1_1test__image__utils_1_1TestConvertToMonochrome.html" target="_top" xlink:title="Test cases for monochrome conversion.">
<polygon fill="white" stroke="#666666" points="315,-1182 168,-1182 168,-1152 315,-1152 315,-1182"/>
<text text-anchor="start" x="176" y="-1170" font-family="Helvetica,sans-Serif" font-size="10.00">tests.test_image_utils.Test</text>
<text text-anchor="middle" x="241.5" y="-1159" font-family="Helvetica,sans-Serif" font-size="10.00">ConvertToMonochrome</text>
</a>
</g>
</g>
<!-- Node0&#45;&gt;Node13 -->
<g id="edge29_Node000000_Node000013" class="edge">
<title>Node0&#45;&gt;Node13</title>
<g id="a_edge29_Node000000_Node000013"><a xlink:title=" ">
<path fill="none" stroke="#63b8ff" d="M52.64,-730.93C57.46,-807.66 78.58,-1082.65 137,-1143 145.4,-1151.68 156.28,-1157.49 167.82,-1161.33"/>
<polygon fill="#63b8ff" stroke="#63b8ff" points="56.13,-730.51 52.03,-720.74 49.14,-730.93 56.13,-730.51"/>
</a>
</g>
</g>
<!-- Node14 -->
<g id="Node000014" class="node">
<title>Node14</title>
<g id="a_Node000014"><a xlink:href="classtests_1_1test__image__utils_1_1TestHueClamp.html" target="_top" xlink:title="Test cases for hue shift clamping.">
<polygon fill="white" stroke="#666666" points="315,-1134 168,-1134 168,-1104 315,-1104 315,-1134"/>
<text text-anchor="start" x="176" y="-1122" font-family="Helvetica,sans-Serif" font-size="10.00">tests.test_image_utils.Test</text>
<text text-anchor="middle" x="241.5" y="-1111" font-family="Helvetica,sans-Serif" font-size="10.00">HueClamp</text>
</a>
</g>
</g>
<!-- Node0&#45;&gt;Node14 -->
<g id="edge30_Node000000_Node000014" class="edge">
<title>Node0&#45;&gt;Node14</title>
<g id="a_edge30_Node000000_Node000014"><a xlink:title=" ">
<path fill="none" stroke="#63b8ff" d="M53.18,-730.96C59.58,-802.18 84.73,-1042.27 137,-1095 145.51,-1103.58 156.43,-1109.34 167.99,-1113.16"/>
<polygon fill="#63b8ff" stroke="#63b8ff" points="56.64,-730.36 52.29,-720.7 49.67,-730.97 56.64,-730.36"/>
</a>
</g>
</g>
<!-- Node15 -->
<g id="Node000015" class="node">
<title>Node15</title>
<g id="a_Node000015"><a xlink:href="classtests_1_1test__image__utils_1_1TestImageUtilsEdgeCases.html" target="_top" xlink:title=" ">
<polygon fill="white" stroke="#666666" points="315,-1086 168,-1086 168,-1056 315,-1056 315,-1086"/>
<text text-anchor="start" x="176" y="-1074" font-family="Helvetica,sans-Serif" font-size="10.00">tests.test_image_utils.Test</text>
<text text-anchor="middle" x="241.5" y="-1063" font-family="Helvetica,sans-Serif" font-size="10.00">ImageUtilsEdgeCases</text>
</a>
</g>
</g>
<!-- Node0&#45;&gt;Node15 -->
<g id="edge31_Node000000_Node000015" class="edge">
<title>Node0&#45;&gt;Node15</title>
<g id="a_edge31_Node000000_Node000015"><a xlink:title=" ">
<path fill="none" stroke="#63b8ff" d="M53.86,-730.96C61.99,-796.25 90.84,-1001.82 137,-1047 145.57,-1055.39 156.46,-1061.06 167.94,-1064.86"/>
<polygon fill="#63b8ff" stroke="#63b8ff" points="57.31,-730.29 52.62,-720.79 50.36,-731.13 57.31,-730.29"/>
</a>
</g>
</g>
<!-- Node16 -->
<g id="Node000016" class="node">
<title>Node16</title>
<g id="a_Node000016"><a xlink:href="classtests_1_1test__image__utils_1_1TestSupportedMethods.html" target="_top" xlink:title="Test cases for supported monochrome methods.">
<polygon fill="white" stroke="#666666" points="315,-1038 168,-1038 168,-1008 315,-1008 315,-1038"/>
<text text-anchor="start" x="176" y="-1026" font-family="Helvetica,sans-Serif" font-size="10.00">tests.test_image_utils.Test</text>
<text text-anchor="middle" x="241.5" y="-1015" font-family="Helvetica,sans-Serif" font-size="10.00">SupportedMethods</text>
</a>
</g>
</g>
<!-- Node0&#45;&gt;Node16 -->
<g id="edge32_Node000000_Node000016" class="edge">
<title>Node0&#45;&gt;Node16</title>
<g id="a_edge32_Node000000_Node000016"><a xlink:title=" ">
<path fill="none" stroke="#63b8ff" d="M51.06,-730.94C51.04,-783.21 58.61,-925.23 137,-999 145.66,-1007.15 156.53,-1012.72 167.94,-1016.49"/>
<polygon fill="#63b8ff" stroke="#63b8ff" points="54.56,-730.73 51.16,-720.69 47.56,-730.66 54.56,-730.73"/>
</a>
</g>
</g>
<!-- Node17 -->
<g id="Node000017" class="node">
<title>Node17</title>
<g id="a_Node000017"><a xlink:href="classtests_1_1test__opencv__image_1_1TestOpenCVImageClone.html" target="_top" xlink:title=" ">
<polygon fill="white" stroke="#666666" points="312.5,-990 170.5,-990 170.5,-960 312.5,-960 312.5,-990"/>
<text text-anchor="start" x="178.5" y="-978" font-family="Helvetica,sans-Serif" font-size="10.00">tests.test_opencv_image.</text>
<text text-anchor="middle" x="241.5" y="-967" font-family="Helvetica,sans-Serif" font-size="10.00">TestOpenCVImageClone</text>
</a>
</g>
</g>
<!-- Node0&#45;&gt;Node17 -->
<g id="edge33_Node000000_Node000017" class="edge">
<title>Node0&#45;&gt;Node17</title>
<g id="a_edge33_Node000000_Node000017"><a xlink:title=" ">
<path fill="none" stroke="#63b8ff" d="M52.41,-730.67C55.65,-776.61 70.35,-891.57 137,-951 146.43,-959.41 158.22,-965.04 170.44,-968.77"/>
<polygon fill="#63b8ff" stroke="#63b8ff" points="55.9,-730.33 51.81,-720.55 48.91,-730.74 55.9,-730.33"/>
</a>
</g>
</g>
<!-- Node18 -->
<g id="Node000018" class="node">
<title>Node18</title>
<g id="a_Node000018"><a xlink:href="classtests_1_1test__opencv__image_1_1TestOpenCVImageConvertFormat.html" target="_top" xlink:title=" ">
<polygon fill="white" stroke="#666666" points="331,-942 152,-942 152,-912 331,-912 331,-942"/>
<text text-anchor="start" x="160" y="-930" font-family="Helvetica,sans-Serif" font-size="10.00">tests.test_opencv_image.</text>
<text text-anchor="middle" x="241.5" y="-919" font-family="Helvetica,sans-Serif" font-size="10.00">TestOpenCVImageConvertFormat</text>
</a>
</g>
</g>
<!-- Node0&#45;&gt;Node18 -->
<g id="edge34_Node000000_Node000018" class="edge">
<title>Node0&#45;&gt;Node18</title>
<g id="a_edge34_Node000000_Node000018"><a xlink:title=" ">
<path fill="none" stroke="#63b8ff" d="M54.38,-730.68C61.2,-769.85 82.06,-857.67 137,-903 141.55,-906.76 146.58,-909.95 151.9,-912.66"/>
<polygon fill="#63b8ff" stroke="#63b8ff" points="57.83,-730.11 52.79,-720.8 50.92,-731.23 57.83,-730.11"/>
</a>
</g>
</g>
<!-- Node19 -->
<g id="Node000019" class="node">
<title>Node19</title>
<g id="a_Node000019"><a xlink:href="classtests_1_1test__opencv__image_1_1TestOpenCVImageGaussianBlur.html" target="_top" xlink:title=" ">
<polygon fill="white" stroke="#666666" points="326.5,-894 156.5,-894 156.5,-864 326.5,-864 326.5,-894"/>
<text text-anchor="start" x="164.5" y="-882" font-family="Helvetica,sans-Serif" font-size="10.00">tests.test_opencv_image.</text>
<text text-anchor="middle" x="241.5" y="-871" font-family="Helvetica,sans-Serif" font-size="10.00">TestOpenCVImageGaussianBlur</text>
</a>
</g>
</g>
<!-- Node0&#45;&gt;Node19 -->
<g id="edge35_Node000000_Node000019" class="edge">
<title>Node0&#45;&gt;Node19</title>
<g id="a_edge35_Node000000_Node000019"><a xlink:title=" ">
<path fill="none" stroke="#63b8ff" d="M57.38,-730.22C67.98,-761.48 93.33,-823.07 137,-855 142.88,-859.3 149.41,-862.85 156.25,-865.77"/>
<polygon fill="#63b8ff" stroke="#63b8ff" points="60.65,-728.96 54.24,-720.52 53.99,-731.12 60.65,-728.96"/>
</a>
</g>
</g>
<!-- Node20 -->
<g id="Node000020" class="node">
<title>Node20</title>
<g id="a_Node000020"><a xlink:href="classtests_1_1test__opencv__image_1_1TestOpenCVImageInitialization.html" target="_top" xlink:title="Test cases for OpenCVImage initialization.">
<polygon fill="white" stroke="#666666" points="325,-846 158,-846 158,-816 325,-816 325,-846"/>
<text text-anchor="start" x="166" y="-834" font-family="Helvetica,sans-Serif" font-size="10.00">tests.test_opencv_image.</text>
<text text-anchor="middle" x="241.5" y="-823" font-family="Helvetica,sans-Serif" font-size="10.00">TestOpenCVImageInitialization</text>
</a>
</g>
</g>
<!-- Node0&#45;&gt;Node20 -->
<g id="edge36_Node000000_Node000020" class="edge">
<title>Node0&#45;&gt;Node20</title>
<g id="a_edge36_Node000000_Node000020"><a xlink:title=" ">
<path fill="none" stroke="#63b8ff" d="M62.73,-729.38C77.14,-751.35 104.23,-787.56 137,-807 143.5,-810.86 150.58,-814.1 157.88,-816.82"/>
<polygon fill="#63b8ff" stroke="#63b8ff" points="65.51,-727.23 57.19,-720.67 59.6,-730.99 65.51,-727.23"/>
</a>
</g>
</g>
<!-- Node21 -->
<g id="Node000021" class="node">
<title>Node21</title>
<g id="a_Node000021"><a xlink:href="classtests_1_1test__opencv__image_1_1TestOpenCVImageLoad.html" target="_top" xlink:title="Test cases for OpenCVImage load functionality.">
<polygon fill="white" stroke="#666666" points="312.5,-798 170.5,-798 170.5,-768 312.5,-768 312.5,-798"/>
<text text-anchor="start" x="178.5" y="-786" font-family="Helvetica,sans-Serif" font-size="10.00">tests.test_opencv_image.</text>
<text text-anchor="middle" x="241.5" y="-775" font-family="Helvetica,sans-Serif" font-size="10.00">TestOpenCVImageLoad</text>
</a>
</g>
</g>
<!-- Node0&#45;&gt;Node21 -->
<g id="edge37_Node000000_Node000021" class="edge">
<title>Node0&#45;&gt;Node21</title>
<g id="a_edge37_Node000000_Node000021"><a xlink:title=" ">
<path fill="none" stroke="#63b8ff" d="M74.24,-726.13C90.99,-736.66 114.63,-750.33 137,-759 147.58,-763.1 159.05,-766.61 170.37,-769.59"/>
<polygon fill="#63b8ff" stroke="#63b8ff" points="76.01,-723.1 65.71,-720.65 72.23,-728.99 76.01,-723.1"/>
</a>
</g>
</g>
<!-- Node22 -->
<g id="Node000022" class="node">
<title>Node22</title>
<g id="a_Node000022"><a xlink:href="classtests_1_1test__opencv__image_1_1TestOpenCVImageResize.html" target="_top" xlink:title=" ">
<polygon fill="white" stroke="#666666" points="312.5,-750 170.5,-750 170.5,-720 312.5,-720 312.5,-750"/>
<text text-anchor="start" x="178.5" y="-738" font-family="Helvetica,sans-Serif" font-size="10.00">tests.test_opencv_image.</text>
<text text-anchor="middle" x="241.5" y="-727" font-family="Helvetica,sans-Serif" font-size="10.00">TestOpenCVImageResize</text>
</a>
</g>
</g>
<!-- Node0&#45;&gt;Node22 -->
<g id="edge38_Node000000_Node000022" class="edge">
<title>Node0&#45;&gt;Node22</title>
<g id="a_edge38_Node000000_Node000022"><a xlink:title=" ">
<path fill="none" stroke="#63b8ff" d="M111.31,-718.6C130.03,-720.97 150.85,-723.62 170.21,-726.07"/>
<polygon fill="#63b8ff" stroke="#63b8ff" points="111.52,-715.09 101.16,-717.31 110.64,-722.04 111.52,-715.09"/>
</a>
</g>
</g>
<!-- Node23 -->
<g id="Node000023" class="node">
<title>Node23</title>
<g id="a_Node000023"><a xlink:href="classtests_1_1test__opencv__image_1_1TestOpenCVImageSave.html" target="_top" xlink:title=" ">
<polygon fill="white" stroke="#666666" points="312.5,-702 170.5,-702 170.5,-672 312.5,-672 312.5,-702"/>
<text text-anchor="start" x="178.5" y="-690" font-family="Helvetica,sans-Serif" font-size="10.00">tests.test_opencv_image.</text>
<text text-anchor="middle" x="241.5" y="-679" font-family="Helvetica,sans-Serif" font-size="10.00">TestOpenCVImageSave</text>
</a>
</g>
</g>
<!-- Node0&#45;&gt;Node23 -->
<g id="edge39_Node000000_Node000023" class="edge">
<title>Node0&#45;&gt;Node23</title>
<g id="a_edge39_Node000000_Node000023"><a xlink:title=" ">
<path fill="none" stroke="#63b8ff" d="M111.31,-703.4C130.03,-701.03 150.85,-698.38 170.21,-695.93"/>
<polygon fill="#63b8ff" stroke="#63b8ff" points="110.64,-699.96 101.16,-704.69 111.52,-706.91 110.64,-699.96"/>
</a>
</g>
</g>
<!-- Node24 -->
<g id="Node000024" class="node">
<title>Node24</title>
<g id="a_Node000024"><a xlink:href="classtests_1_1test__parallel_1_1TestHueAdjusterParAdjustBatch.html" target="_top" xlink:title=" ">
<polygon fill="white" stroke="#666666" points="316.5,-654 166.5,-654 166.5,-624 316.5,-624 316.5,-654"/>
<text text-anchor="start" x="174.5" y="-642" font-family="Helvetica,sans-Serif" font-size="10.00">tests.test_parallel.Test</text>
<text text-anchor="middle" x="241.5" y="-631" font-family="Helvetica,sans-Serif" font-size="10.00">HueAdjusterParAdjustBatch</text>
</a>
</g>
</g>
<!-- Node0&#45;&gt;Node24 -->
<g id="edge40_Node000000_Node000024" class="edge">
<title>Node0&#45;&gt;Node24</title>
<g id="a_edge40_Node000000_Node000024"><a xlink:title=" ">
<path fill="none" stroke="#63b8ff" d="M74.24,-695.87C90.99,-685.34 114.63,-671.67 137,-663 146.37,-659.37 156.45,-656.19 166.5,-653.45"/>
<polygon fill="#63b8ff" stroke="#63b8ff" points="72.23,-693.01 65.71,-701.35 76.01,-698.9 72.23,-693.01"/>
</a>
</g>
</g>
<!-- Node25 -->
<g id="Node000025" class="node">
<title>Node25</title>
<g id="a_Node000025"><a xlink:href="classtests_1_1test__parallel_1_1TestHueAdjusterParInitialization.html" target="_top" xlink:title=" ">
<polygon fill="white" stroke="#666666" points="317.5,-606 165.5,-606 165.5,-576 317.5,-576 317.5,-606"/>
<text text-anchor="start" x="173.5" y="-594" font-family="Helvetica,sans-Serif" font-size="10.00">tests.test_parallel.Test</text>
<text text-anchor="middle" x="241.5" y="-583" font-family="Helvetica,sans-Serif" font-size="10.00">HueAdjusterParInitialization</text>
</a>
</g>
</g>
<!-- Node0&#45;&gt;Node25 -->
<g id="edge41_Node000000_Node000025" class="edge">
<title>Node0&#45;&gt;Node25</title>
<g id="a_edge41_Node000000_Node000025"><a xlink:title=" ">
<path fill="none" stroke="#63b8ff" d="M62.73,-692.62C77.14,-670.65 104.23,-634.44 137,-615 145.72,-609.82 155.48,-605.76 165.41,-602.58"/>
<polygon fill="#63b8ff" stroke="#63b8ff" points="59.6,-691.01 57.19,-701.33 65.51,-694.77 59.6,-691.01"/>
</a>
</g>
</g>
<!-- Node26 -->
<g id="Node000026" class="node">
<title>Node26</title>
<g id="a_Node000026"><a xlink:href="classtests_1_1test__parallel_1_1TestHueAdjusterParVarying.html" target="_top" xlink:title=" ">
<polygon fill="white" stroke="#666666" points="305.5,-558 177.5,-558 177.5,-528 305.5,-528 305.5,-558"/>
<text text-anchor="start" x="185.5" y="-546" font-family="Helvetica,sans-Serif" font-size="10.00">tests.test_parallel.Test</text>
<text text-anchor="middle" x="241.5" y="-535" font-family="Helvetica,sans-Serif" font-size="10.00">HueAdjusterParVarying</text>
</a>
</g>
</g>
<!-- Node0&#45;&gt;Node26 -->
<g id="edge42_Node000000_Node000026" class="edge">
<title>Node0&#45;&gt;Node26</title>
<g id="a_edge42_Node000000_Node000026"><a xlink:title=" ">
<path fill="none" stroke="#63b8ff" d="M57.38,-691.78C67.98,-660.52 93.33,-598.93 137,-567 148.76,-558.4 163.12,-552.82 177.35,-549.22"/>
<polygon fill="#63b8ff" stroke="#63b8ff" points="53.99,-690.88 54.24,-701.48 60.65,-693.04 53.99,-690.88"/>
</a>
</g>
</g>
<!-- Node27 -->
<g id="Node000027" class="node">
<title>Node27</title>
<g id="a_Node000027"><a xlink:href="classtests_1_1test__parallel_1_1TestMonochromeConverterParInitialization.html" target="_top" xlink:title="Test cases for MonochromeConverterPar initialization.">
<polygon fill="white" stroke="#666666" points="343.5,-510 139.5,-510 139.5,-480 343.5,-480 343.5,-510"/>
<text text-anchor="start" x="147.5" y="-498" font-family="Helvetica,sans-Serif" font-size="10.00">tests.test_parallel.Test</text>
<text text-anchor="middle" x="241.5" y="-487" font-family="Helvetica,sans-Serif" font-size="10.00">MonochromeConverterParInitialization</text>
</a>
</g>
</g>
<!-- Node0&#45;&gt;Node27 -->
<g id="edge43_Node000000_Node000027" class="edge">
<title>Node0&#45;&gt;Node27</title>
<g id="a_edge43_Node000000_Node000027"><a xlink:title=" ">
<path fill="none" stroke="#63b8ff" d="M54.38,-691.32C61.2,-652.15 82.06,-564.33 137,-519 141.13,-515.6 145.65,-512.65 150.42,-510.12"/>
<polygon fill="#63b8ff" stroke="#63b8ff" points="50.92,-690.77 52.79,-701.2 57.83,-691.89 50.92,-690.77"/>
</a>
</g>
</g>
<!-- Node28 -->
<g id="Node000028" class="node">
<title>Node28</title>
<g id="a_Node000028"><a xlink:href="classtests_1_1test__parallel_1_1TestMonochromeConverterParProcessBatch.html" target="_top" xlink:title="Test cases for parallel monochrome batch processing.">
<polygon fill="white" stroke="#666666" points="346,-462 137,-462 137,-432 346,-432 346,-462"/>
<text text-anchor="start" x="145" y="-450" font-family="Helvetica,sans-Serif" font-size="10.00">tests.test_parallel.Test</text>
<text text-anchor="middle" x="241.5" y="-439" font-family="Helvetica,sans-Serif" font-size="10.00">MonochromeConverterParProcessBatch</text>
</a>
</g>
</g>
<!-- Node0&#45;&gt;Node28 -->
<g id="edge44_Node000000_Node000028" class="edge">
<title>Node0&#45;&gt;Node28</title>
<g id="a_edge44_Node000000_Node000028"><a xlink:title=" ">
<path fill="none" stroke="#63b8ff" d="M52.41,-691.33C55.65,-645.39 70.35,-530.43 137,-471 140.85,-467.56 145.1,-464.59 149.62,-462.02"/>
<polygon fill="#63b8ff" stroke="#63b8ff" points="48.91,-691.26 51.81,-701.45 55.9,-691.67 48.91,-691.26"/>
</a>
</g>
</g>
<!-- Node29 -->
<g id="Node000029" class="node">
<title>Node29</title>
<g id="a_Node000029"><a xlink:href="classtests_1_1test__parallel_1_1TestParallelProcessingCorrectness.html" target="_top" xlink:title=" ">
<polygon fill="white" stroke="#666666" points="323,-414 160,-414 160,-384 323,-384 323,-414"/>
<text text-anchor="start" x="168" y="-402" font-family="Helvetica,sans-Serif" font-size="10.00">tests.test_parallel.Test</text>
<text text-anchor="middle" x="241.5" y="-391" font-family="Helvetica,sans-Serif" font-size="10.00">ParallelProcessingCorrectness</text>
</a>
</g>
</g>
<!-- Node0&#45;&gt;Node29 -->
<g id="edge45_Node000000_Node000029" class="edge">
<title>Node0&#45;&gt;Node29</title>
<g id="a_edge45_Node000000_Node000029"><a xlink:title=" ">
<path fill="none" stroke="#63b8ff" d="M51.06,-691.06C51.04,-638.79 58.61,-496.77 137,-423 143.58,-416.81 151.44,-412.1 159.83,-408.55"/>
<polygon fill="#63b8ff" stroke="#63b8ff" points="47.56,-691.34 51.16,-701.31 54.56,-691.27 47.56,-691.34"/>
</a>
</g>
</g>
<!-- Node30 -->
<g id="Node000030" class="node">
<title>Node30</title>
<g id="a_Node000030"><a xlink:href="classtests_1_1test__parallel_1_1TestParallelVsThread.html" target="_top" xlink:title=" ">
<polygon fill="white" stroke="#666666" points="305,-366 178,-366 178,-336 305,-336 305,-366"/>
<text text-anchor="start" x="186" y="-354" font-family="Helvetica,sans-Serif" font-size="10.00">tests.test_parallel.Test</text>
<text text-anchor="middle" x="241.5" y="-343" font-family="Helvetica,sans-Serif" font-size="10.00">ParallelVsThread</text>
</a>
</g>
</g>
<!-- Node0&#45;&gt;Node30 -->
<g id="edge46_Node000000_Node000030" class="edge">
<title>Node0&#45;&gt;Node30</title>
<g id="a_edge46_Node000000_Node000030"><a xlink:title=" ">
<path fill="none" stroke="#63b8ff" d="M53.86,-691.04C61.99,-625.75 90.84,-420.18 137,-375 148.01,-364.23 162.84,-357.93 177.84,-354.33"/>
<polygon fill="#63b8ff" stroke="#63b8ff" points="50.36,-690.87 52.62,-701.21 57.31,-691.71 50.36,-690.87"/>
</a>
</g>
</g>
<!-- Node31 -->
<g id="Node000031" class="node">
<title>Node31</title>
<g id="a_Node000031"><a xlink:href="classtests_1_1test__sequential_1_1TestHueAdjusterSeqBatch.html" target="_top" xlink:title=" ">
<polygon fill="white" stroke="#666666" points="312,-318 171,-318 171,-288 312,-288 312,-318"/>
<text text-anchor="start" x="179" y="-306" font-family="Helvetica,sans-Serif" font-size="10.00">tests.test_sequential.Test</text>
<text text-anchor="middle" x="241.5" y="-295" font-family="Helvetica,sans-Serif" font-size="10.00">HueAdjusterSeqBatch</text>
</a>
</g>
</g>
<!-- Node0&#45;&gt;Node31 -->
<g id="edge47_Node000000_Node000031" class="edge">
<title>Node0&#45;&gt;Node31</title>
<g id="a_edge47_Node000000_Node000031"><a xlink:title=" ">
<path fill="none" stroke="#63b8ff" d="M53.18,-691.04C59.58,-619.82 84.73,-379.73 137,-327 146.22,-317.7 158.29,-311.71 170.91,-307.91"/>
<polygon fill="#63b8ff" stroke="#63b8ff" points="49.67,-691.03 52.29,-701.3 56.64,-691.64 49.67,-691.03"/>
</a>
</g>
</g>
<!-- Node32 -->
<g id="Node000032" class="node">
<title>Node32</title>
<g id="a_Node000032"><a xlink:href="classtests_1_1test__sequential_1_1TestHueAdjusterSeqInitialization.html" target="_top" xlink:title=" ">
<polygon fill="white" stroke="#666666" points="319,-270 164,-270 164,-240 319,-240 319,-270"/>
<text text-anchor="start" x="172" y="-258" font-family="Helvetica,sans-Serif" font-size="10.00">tests.test_sequential.Test</text>
<text text-anchor="middle" x="241.5" y="-247" font-family="Helvetica,sans-Serif" font-size="10.00">HueAdjusterSeqInitialization</text>
</a>
</g>
</g>
<!-- Node0&#45;&gt;Node32 -->
<g id="edge48_Node000000_Node000032" class="edge">
<title>Node0&#45;&gt;Node32</title>
<g id="a_edge48_Node000000_Node000032"><a xlink:title=" ">
<path fill="none" stroke="#63b8ff" d="M52.64,-691.07C57.46,-614.34 78.58,-339.35 137,-279 144.44,-271.31 153.82,-265.88 163.88,-262.07"/>
<polygon fill="#63b8ff" stroke="#63b8ff" points="49.14,-691.07 52.03,-701.26 56.13,-691.49 49.14,-691.07"/>
</a>
</g>
</g>
<!-- Node33 -->
<g id="Node000033" class="node">
<title>Node33</title>
<g id="a_Node000033"><a xlink:href="classtests_1_1test__sequential_1_1TestHueAdjusterSeqProcess.html" target="_top" xlink:title=" ">
<polygon fill="white" stroke="#666666" points="312,-222 171,-222 171,-192 312,-192 312,-222"/>
<text text-anchor="start" x="179" y="-210" font-family="Helvetica,sans-Serif" font-size="10.00">tests.test_sequential.Test</text>
<text text-anchor="middle" x="241.5" y="-199" font-family="Helvetica,sans-Serif" font-size="10.00">HueAdjusterSeqProcess</text>
</a>
</g>
</g>
<!-- Node0&#45;&gt;Node33 -->
<g id="edge49_Node000000_Node000033" class="edge">
<title>Node0&#45;&gt;Node33</title>
<g id="a_edge49_Node000000_Node000033"><a xlink:title=" ">
<path fill="none" stroke="#63b8ff" d="M52.22,-691.01C55.58,-608.95 72.41,-299.01 137,-231 146.08,-221.44 158.16,-215.34 170.86,-211.53"/>
<polygon fill="#63b8ff" stroke="#63b8ff" points="48.7,-691.28 51.82,-701.41 55.7,-691.55 48.7,-691.28"/>
</a>
</g>
</g>
<!-- Node34 -->
<g id="Node000034" class="node">
<title>Node34</title>
<g id="a_Node000034"><a xlink:href="classtests_1_1test__sequential_1_1TestHueAdjusterSeqSetHueShift.html" target="_top" xlink:title=" ">
<polygon fill="white" stroke="#666666" points="317.5,-174 165.5,-174 165.5,-144 317.5,-144 317.5,-174"/>
<text text-anchor="start" x="173.5" y="-162" font-family="Helvetica,sans-Serif" font-size="10.00">tests.test_sequential.Test</text>
<text text-anchor="middle" x="241.5" y="-151" font-family="Helvetica,sans-Serif" font-size="10.00">HueAdjusterSeqSetHueShift</text>
</a>
</g>
</g>
<!-- Node0&#45;&gt;Node34 -->
<g id="edge50_Node000000_Node000034" class="edge">
<title>Node0&#45;&gt;Node34</title>
<g id="a_edge50_Node000000_Node000034"><a xlink:title=" ">
<path fill="none" stroke="#63b8ff" d="M51.86,-691.26C53.84,-604.59 66.14,-258.79 137,-183 144.75,-174.71 154.74,-169.02 165.47,-165.16"/>
<polygon fill="#63b8ff" stroke="#63b8ff" points="48.36,-691.25 51.65,-701.32 55.36,-691.39 48.36,-691.25"/>
</a>
</g>
</g>
<!-- Node35 -->
<g id="Node000035" class="node">
<title>Node35</title>
<g id="a_Node000035"><a xlink:href="classtests_1_1test__sequential_1_1TestMonochromeAndHueSequence.html" target="_top" xlink:title=" ">
<polygon fill="white" stroke="#666666" points="324.5,-126 158.5,-126 158.5,-96 324.5,-96 324.5,-126"/>
<text text-anchor="start" x="166.5" y="-114" font-family="Helvetica,sans-Serif" font-size="10.00">tests.test_sequential.Test</text>
<text text-anchor="middle" x="241.5" y="-103" font-family="Helvetica,sans-Serif" font-size="10.00">MonochromeAndHueSequence</text>
</a>
</g>
</g>
<!-- Node0&#45;&gt;Node35 -->
<g id="edge51_Node000000_Node000035" class="edge">
<title>Node0&#45;&gt;Node35</title>
<g id="a_edge51_Node000000_Node000035"><a xlink:title=" ">
<path fill="none" stroke="#63b8ff" d="M51.57,-691.24C52.28,-599.79 59.92,-218.55 137,-135 143,-128.49 150.39,-123.58 158.44,-119.9"/>
<polygon fill="#63b8ff" stroke="#63b8ff" points="48.07,-691.32 51.51,-701.34 55.07,-691.36 48.07,-691.32"/>
</a>
</g>
</g>
<!-- Node36 -->
<g id="Node000036" class="node">
<title>Node36</title>
<g id="a_Node000036"><a xlink:href="classtests_1_1test__sequential_1_1TestMonochromeConverterSeqInitialization.html" target="_top" xlink:title="Test cases for MonochromeConverterSeq initialization.">
<polygon fill="white" stroke="#666666" points="345,-78 138,-78 138,-48 345,-48 345,-78"/>
<text text-anchor="start" x="146" y="-66" font-family="Helvetica,sans-Serif" font-size="10.00">tests.test_sequential.Test</text>
<text text-anchor="middle" x="241.5" y="-55" font-family="Helvetica,sans-Serif" font-size="10.00">MonochromeConverterSeqInitialization</text>
</a>
</g>
</g>
<!-- Node0&#45;&gt;Node36 -->
<g id="edge52_Node000000_Node000036" class="edge">
<title>Node0&#45;&gt;Node36</title>
<g id="a_edge52_Node000000_Node000036"><a xlink:title=" ">
<path fill="none" stroke="#63b8ff" d="M51.32,-691.44C50.84,-595.82 53.61,-178.4 137,-87 140.11,-83.59 143.6,-80.62 147.36,-78.04"/>
<polygon fill="#63b8ff" stroke="#63b8ff" points="47.82,-691.49 51.39,-701.47 54.82,-691.44 47.82,-691.49"/>
</a>
</g>
</g>
<!-- Node37 -->
<g id="Node000037" class="node">
<title>Node37</title>
<g id="a_Node000037"><a xlink:href="classtests_1_1test__sequential_1_1TestMonochromeConverterSeqProcess.html" target="_top" xlink:title="Test cases for MonochromeConverterSeq processing.">
<polygon fill="white" stroke="#666666" points="333.5,-30 149.5,-30 149.5,0 333.5,0 333.5,-30"/>
<text text-anchor="start" x="157.5" y="-18" font-family="Helvetica,sans-Serif" font-size="10.00">tests.test_sequential.Test</text>
<text text-anchor="middle" x="241.5" y="-7" font-family="Helvetica,sans-Serif" font-size="10.00">MonochromeConverterSeqProcess</text>
</a>
</g>
</g>
<!-- Node0&#45;&gt;Node37 -->
<g id="edge53_Node000000_Node000037" class="edge">
<title>Node0&#45;&gt;Node37</title>
<g id="a_edge53_Node000000_Node000037"><a xlink:title=" ">
<path fill="none" stroke="#63b8ff" d="M51.1,-691.22C49.5,-590.78 47.42,-138.15 137,-39 140.59,-35.03 144.69,-31.65 149.14,-28.78"/>
<polygon fill="#63b8ff" stroke="#63b8ff" points="47.6,-691.29 51.28,-701.22 54.6,-691.16 47.6,-691.29"/>
</a>
</g>
</g>
<!-- Node2 -->
<g id="Node000002" class="node">
<title>Node2</title>
<g id="a_Node000002"><a xlink:href="classtests_1_1test__gui__thread__safety_1_1TestConcurrentProcessing.html" target="_top" xlink:title=" ">
<polygon fill="white" stroke="#666666" points="575,-1566 396,-1566 396,-1536 575,-1536 575,-1566"/>
<text text-anchor="start" x="404" y="-1554" font-family="Helvetica,sans-Serif" font-size="10.00">tests.test_gui_thread</text>
<text text-anchor="middle" x="485.5" y="-1543" font-family="Helvetica,sans-Serif" font-size="10.00">_safety.TestConcurrentProcessing</text>
</a>
</g>
</g>
<!-- Node1&#45;&gt;Node2 -->
<g id="edge18_Node000001_Node000002" class="edge">
<title>Node1&#45;&gt;Node2</title>
<g id="a_edge18_Node000001_Node000002"><a xlink:title=" ">
<path fill="none" stroke="#63b8ff" d="M262.27,-1429.66C287.36,-1456.96 333.27,-1502.23 382,-1527 388.76,-1530.44 396.02,-1533.39 403.45,-1535.93"/>
<polygon fill="#63b8ff" stroke="#63b8ff" points="264.77,-1427.21 255.47,-1422.14 259.58,-1431.91 264.77,-1427.21"/>
</a>
</g>
</g>
<!-- Node3 -->
<g id="Node000003" class="node">
<title>Node3</title>
<g id="a_Node000003"><a xlink:href="classtests_1_1test__gui__thread__safety_1_1TestHueTabIntegration.html" target="_top" xlink:title=" ">
<polygon fill="white" stroke="#666666" points="567,-1518 404,-1518 404,-1488 567,-1488 567,-1518"/>
<text text-anchor="start" x="412" y="-1506" font-family="Helvetica,sans-Serif" font-size="10.00">tests.test_gui_thread</text>
<text text-anchor="middle" x="485.5" y="-1495" font-family="Helvetica,sans-Serif" font-size="10.00">_safety.TestHueTabIntegration</text>
</a>
</g>
</g>
<!-- Node1&#45;&gt;Node3 -->
<g id="edge19_Node000001_Node000003" class="edge">
<title>Node1&#45;&gt;Node3</title>
<g id="a_edge19_Node000001_Node000003"><a xlink:title=" ">
<path fill="none" stroke="#63b8ff" d="M276.2,-1427.39C303.8,-1443.36 344.32,-1465.11 382,-1479 391.09,-1482.35 400.81,-1485.34 410.51,-1487.98"/>
<polygon fill="#63b8ff" stroke="#63b8ff" points="277.75,-1424.25 267.35,-1422.22 274.22,-1430.29 277.75,-1424.25"/>
</a>
</g>
</g>
<!-- Node4 -->
<g id="Node000004" class="node">
<title>Node4</title>
<g id="a_Node000004"><a xlink:href="classtests_1_1test__gui__thread__safety_1_1TestHueThreadSignals.html" target="_top" xlink:title=" ">
<polygon fill="white" stroke="#666666" points="566.5,-1470 404.5,-1470 404.5,-1440 566.5,-1440 566.5,-1470"/>
<text text-anchor="start" x="412.5" y="-1458" font-family="Helvetica,sans-Serif" font-size="10.00">tests.test_gui_thread</text>
<text text-anchor="middle" x="485.5" y="-1447" font-family="Helvetica,sans-Serif" font-size="10.00">_safety.TestHueThreadSignals</text>
</a>
</g>
</g>
<!-- Node1&#45;&gt;Node4 -->
<g id="edge20_Node000001_Node000004" class="edge">
<title>Node1&#45;&gt;Node4</title>
<g id="a_edge20_Node000001_Node000004"><a xlink:title=" ">
<path fill="none" stroke="#63b8ff" d="M328.35,-1424.03C354.62,-1429.24 383.32,-1434.93 408.86,-1440"/>
<polygon fill="#63b8ff" stroke="#63b8ff" points="328.9,-1420.57 318.41,-1422.06 327.53,-1427.43 328.9,-1420.57"/>
</a>
</g>
</g>
<!-- Node5 -->
<g id="Node000005" class="node">
<title>Node5</title>
<g id="a_Node000005"><a xlink:href="classtests_1_1test__gui__thread__safety_1_1TestImageDataIntegrity.html" target="_top" xlink:title=" ">
<polygon fill="white" stroke="#666666" points="570,-1422 401,-1422 401,-1392 570,-1392 570,-1422"/>
<text text-anchor="start" x="409" y="-1410" font-family="Helvetica,sans-Serif" font-size="10.00">tests.test_gui_thread</text>
<text text-anchor="middle" x="485.5" y="-1399" font-family="Helvetica,sans-Serif" font-size="10.00">_safety.TestImageDataIntegrity</text>
</a>
</g>
</g>
<!-- Node1&#45;&gt;Node5 -->
<g id="edge21_Node000001_Node000005" class="edge">
<title>Node1&#45;&gt;Node5</title>
<g id="a_edge21_Node000001_Node000005"><a xlink:title=" ">
<path fill="none" stroke="#63b8ff" d="M342.36,-1407C361.82,-1407 382.03,-1407 400.89,-1407"/>
<polygon fill="#63b8ff" stroke="#63b8ff" points="342.27,-1403.5 332.27,-1407 342.27,-1410.5 342.27,-1403.5"/>
</a>
</g>
</g>
<!-- Node6 -->
<g id="Node000006" class="node">
<title>Node6</title>
<g id="a_Node000006"><a xlink:href="classtests_1_1test__gui__thread__safety_1_1TestMonochromeTabIntegration.html" target="_top" xlink:title=" ">
<polygon fill="white" stroke="#666666" points="589,-1374 382,-1374 382,-1344 589,-1344 589,-1374"/>
<text text-anchor="start" x="390" y="-1362" font-family="Helvetica,sans-Serif" font-size="10.00">tests.test_gui_thread</text>
<text text-anchor="middle" x="485.5" y="-1351" font-family="Helvetica,sans-Serif" font-size="10.00">_safety.TestMonochromeTabIntegration</text>
</a>
</g>
</g>
<!-- Node1&#45;&gt;Node6 -->
<g id="edge22_Node000001_Node000006" class="edge">
<title>Node1&#45;&gt;Node6</title>
<g id="a_edge22_Node000001_Node000006"><a xlink:title=" ">
<path fill="none" stroke="#63b8ff" d="M328.35,-1389.97C354.62,-1384.76 383.32,-1379.07 408.86,-1374"/>
<polygon fill="#63b8ff" stroke="#63b8ff" points="327.53,-1386.57 318.41,-1391.94 328.9,-1393.43 327.53,-1386.57"/>
</a>
</g>
</g>
<!-- Node7 -->
<g id="Node000007" class="node">
<title>Node7</title>
<g id="a_Node000007"><a xlink:href="classtests_1_1test__gui__thread__safety_1_1TestMonochromeThreadSignals.html" target="_top" xlink:title=" ">
<polygon fill="white" stroke="#666666" points="571,-1325.5 400,-1325.5 400,-1284.5 571,-1284.5 571,-1325.5"/>
<text text-anchor="start" x="408" y="-1313.5" font-family="Helvetica,sans-Serif" font-size="10.00">tests.test_gui_thread</text>
<text text-anchor="start" x="408" y="-1302.5" font-family="Helvetica,sans-Serif" font-size="10.00">_safety.TestMonochromeThread</text>
<text text-anchor="middle" x="485.5" y="-1291.5" font-family="Helvetica,sans-Serif" font-size="10.00">Signals</text>
</a>
</g>
</g>
<!-- Node1&#45;&gt;Node7 -->
<g id="edge23_Node000001_Node000007" class="edge">
<title>Node1&#45;&gt;Node7</title>
<g id="a_edge23_Node000001_Node000007"><a xlink:title=" ">
<path fill="none" stroke="#63b8ff" d="M337.97,-1387.7C340.73,-1386.25 343.42,-1384.68 346,-1383 368.34,-1368.44 360.08,-1350.19 382,-1335 387.56,-1331.15 393.62,-1327.78 399.93,-1324.84"/>
<polygon fill="#63b8ff" stroke="#63b8ff" points="336.44,-1384.56 328.89,-1391.99 339.43,-1390.88 336.44,-1384.56"/>
</a>
</g>
</g>
<!-- Node8 -->
<g id="Node000008" class="node">
<title>Node8</title>
<g id="a_Node000008"><a xlink:href="classtests_1_1test__gui__thread__safety_1_1TestThreadRaceConditions.html" target="_top" xlink:title=" ">
<polygon fill="white" stroke="#666666" points="577,-1266 394,-1266 394,-1236 577,-1236 577,-1266"/>
<text text-anchor="start" x="402" y="-1254" font-family="Helvetica,sans-Serif" font-size="10.00">tests.test_gui_thread</text>
<text text-anchor="middle" x="485.5" y="-1243" font-family="Helvetica,sans-Serif" font-size="10.00">_safety.TestThreadRaceConditions</text>
</a>
</g>
</g>
<!-- Node1&#45;&gt;Node8 -->
<g id="edge24_Node000001_Node000008" class="edge">
<title>Node1&#45;&gt;Node8</title>
<g id="a_edge24_Node000001_Node000008"><a xlink:title=" ">
<path fill="none" stroke="#63b8ff" d="M340.61,-1387.41C342.48,-1386.03 344.28,-1384.56 346,-1383 383.42,-1348.94 344.62,-1309.1 382,-1275 385.65,-1271.67 389.66,-1268.78 393.93,-1266.27"/>
<polygon fill="#63b8ff" stroke="#63b8ff" points="338.57,-1384.56 332.01,-1392.89 342.33,-1390.47 338.57,-1384.56"/>
</a>
</g>
</g>
</g>
</svg>
