<?xml version="1.0" encoding="UTF-8" standalone="no"?>
<!DOCTYPE svg PUBLIC "-//W3C//DTD SVG 1.1//EN"
 "http://www.w3.org/Graphics/SVG/1.1/DTD/svg11.dtd">
<!-- Generated by graphviz version 2.43.0 (0)
 -->
<!-- Title: Graphical Class Hierarchy Pages: 1 -->
<svg width="518pt" height="182pt"
 viewBox="0.00 0.00 518.00 182.00" xmlns="http://www.w3.org/2000/svg" xmlns:xlink="http://www.w3.org/1999/xlink">
<g id="graph0" class="graph" transform="scale(1 1) rotate(0) translate(4 178)">
<title>Graphical Class Hierarchy</title>
<!-- Node0 -->
<g id="Node000000" class="node">
<title>Node0</title>
<g id="a_Node000000"><a xlink:title=" ">
<polygon fill="#e0e0e0" stroke="#999999" points="37,-96.5 0,-96.5 0,-77.5 37,-77.5 37,-96.5"/>
<text text-anchor="middle" x="18.5" y="-84.5" font-family="Helvetica,sans-Serif" font-size="10.00">ABC</text>
</a>
</g>
</g>
<!-- Node1 -->
<g id="Node000001" class="node">
<title>Node1</title>
<g id="a_Node000001"><a xlink:href="classsrc_1_1common_1_1image__base_1_1ImageBase.html" target="_top" xlink:title="Abstract base class for image operations.">
<polygon fill="white" stroke="#666666" points="273.5,-120.5 76.5,-120.5 76.5,-101.5 273.5,-101.5 273.5,-120.5"/>
<text text-anchor="middle" x="175" y="-108.5" font-family="Helvetica,sans-Serif" font-size="10.00">src.common.image_base.ImageBase</text>
</a>
</g>
</g>
<!-- Node0&#45;&gt;Node1 -->
<g id="edge1_Node000000_Node000001" class="edge">
<title>Node0&#45;&gt;Node1</title>
<g id="a_edge1_Node000000_Node000001"><a xlink:title=" ">
<path fill="none" stroke="#63b8ff" d="M47.13,-91.29C65.32,-94.12 89.87,-97.93 112.52,-101.45"/>
<polygon fill="#63b8ff" stroke="#63b8ff" points="47.64,-87.83 37.22,-89.75 46.57,-94.75 47.64,-87.83"/>
</a>
</g>
</g>
<!-- Node4 -->
<g id="Node000004" class="node">
<title>Node4</title>
<g id="a_Node000004"><a xlink:href="classsrc_1_1modules_1_1sequential_1_1ProcessorBase.html" target="_top" xlink:title="Abstract base class for image processors.">
<polygon fill="white" stroke="#666666" points="277,-72.5 73,-72.5 73,-53.5 277,-53.5 277,-72.5"/>
<text text-anchor="middle" x="175" y="-60.5" font-family="Helvetica,sans-Serif" font-size="10.00">src.modules.sequential.ProcessorBase</text>
</a>
</g>
</g>
<!-- Node0&#45;&gt;Node4 -->
<g id="edge4_Node000000_Node000004" class="edge">
<title>Node0&#45;&gt;Node4</title>
<g id="a_edge4_Node000000_Node000004"><a xlink:title=" ">
<path fill="none" stroke="#63b8ff" d="M47.13,-82.71C65.32,-79.88 89.87,-76.07 112.52,-72.55"/>
<polygon fill="#63b8ff" stroke="#63b8ff" points="46.57,-79.25 37.22,-84.25 47.64,-86.17 46.57,-79.25"/>
</a>
</g>
</g>
<!-- Node2 -->
<g id="Node000002" class="node">
<title>Node2</title>
<g id="a_Node000002"><a xlink:href="classsrc_1_1image_1_1opencv__image_1_1OpenCVImage.html" target="_top" xlink:title="OpenCV implementation of ImageBase.">
<polygon fill="white" stroke="#666666" points="495,-174 328,-174 328,-144 495,-144 495,-174"/>
<text text-anchor="start" x="336" y="-162" font-family="Helvetica,sans-Serif" font-size="10.00">src.image.opencv_image.Open</text>
<text text-anchor="middle" x="411.5" y="-151" font-family="Helvetica,sans-Serif" font-size="10.00">CVImage</text>
</a>
</g>
</g>
<!-- Node1&#45;&gt;Node2 -->
<g id="edge2_Node000001_Node000002" class="edge">
<title>Node1&#45;&gt;Node2</title>
<g id="a_edge2_Node000001_Node000002"><a xlink:title=" ">
<path fill="none" stroke="#63b8ff" d="M232.51,-122.57C263.95,-129 303.42,-137.08 337.2,-144"/>
<polygon fill="#63b8ff" stroke="#63b8ff" points="233.11,-119.12 222.61,-120.54 231.71,-125.97 233.11,-119.12"/>
</a>
</g>
</g>
<!-- Node3 -->
<g id="Node000003" class="node">
<title>Node3</title>
<g id="a_Node000003"><a xlink:href="classtests_1_1test__image__base_1_1ConcreteImageForTesting.html" target="_top" xlink:title="Concrete implementation of ImageBase for testing.">
<polygon fill="white" stroke="#666666" points="498,-126 325,-126 325,-96 498,-96 498,-126"/>
<text text-anchor="start" x="333" y="-114" font-family="Helvetica,sans-Serif" font-size="10.00">tests.test_image_base.Concrete</text>
<text text-anchor="middle" x="411.5" y="-103" font-family="Helvetica,sans-Serif" font-size="10.00">ImageForTesting</text>
</a>
</g>
</g>
<!-- Node1&#45;&gt;Node3 -->
<g id="edge3_Node000001_Node000003" class="edge">
<title>Node1&#45;&gt;Node3</title>
<g id="a_edge3_Node000001_Node000003"><a xlink:title=" ">
<path fill="none" stroke="#63b8ff" d="M284.15,-111C297.8,-111 311.62,-111 324.85,-111"/>
<polygon fill="#63b8ff" stroke="#63b8ff" points="283.75,-107.5 273.75,-111 283.75,-114.5 283.75,-107.5"/>
</a>
</g>
</g>
<!-- Node5 -->
<g id="Node000005" class="node">
<title>Node5</title>
<g id="a_Node000005"><a xlink:href="classsrc_1_1modules_1_1sequential_1_1HueAdjusterSeq.html" target="_top" xlink:title="Sequential hue adjuster.">
<polygon fill="white" stroke="#666666" points="487.5,-78 335.5,-78 335.5,-48 487.5,-48 487.5,-78"/>
<text text-anchor="start" x="343.5" y="-66" font-family="Helvetica,sans-Serif" font-size="10.00">src.modules.sequential.Hue</text>
<text text-anchor="middle" x="411.5" y="-55" font-family="Helvetica,sans-Serif" font-size="10.00">AdjusterSeq</text>
</a>
</g>
</g>
<!-- Node4&#45;&gt;Node5 -->
<g id="edge5_Node000004_Node000005" class="edge">
<title>Node4&#45;&gt;Node5</title>
<g id="a_edge5_Node000004_Node000005"><a xlink:title=" ">
<path fill="none" stroke="#63b8ff" d="M287.29,-63C303.63,-63 320.12,-63 335.5,-63"/>
<polygon fill="#63b8ff" stroke="#63b8ff" points="287.15,-59.5 277.15,-63 287.15,-66.5 287.15,-59.5"/>
</a>
</g>
</g>
<!-- Node6 -->
<g id="Node000006" class="node">
<title>Node6</title>
<g id="a_Node000006"><a xlink:href="classsrc_1_1modules_1_1sequential_1_1MonochromeConverterSeq.html" target="_top" xlink:title="Sequential monochrome converter.">
<polygon fill="white" stroke="#666666" points="510,-30 313,-30 313,0 510,0 510,-30"/>
<text text-anchor="start" x="321" y="-18" font-family="Helvetica,sans-Serif" font-size="10.00">src.modules.sequential.Monochrome</text>
<text text-anchor="middle" x="411.5" y="-7" font-family="Helvetica,sans-Serif" font-size="10.00">ConverterSeq</text>
</a>
</g>
</g>
<!-- Node4&#45;&gt;Node6 -->
<g id="edge6_Node000004_Node000006" class="edge">
<title>Node4&#45;&gt;Node6</title>
<g id="a_edge6_Node000004_Node000006"><a xlink:title=" ">
<path fill="none" stroke="#63b8ff" d="M232.51,-51.43C263.95,-45 303.42,-36.92 337.2,-30"/>
<polygon fill="#63b8ff" stroke="#63b8ff" points="231.71,-48.03 222.61,-53.46 233.11,-54.88 231.71,-48.03"/>
</a>
</g>
</g>
</g>
</svg>
